<?xml version="1.0" encoding="UTF-8" standalone="no"?>
<!-- Generator: Adobe Illustrator 21.1.0, SVG Export Plug-In . SVG Version: 6.00 Build 0)  -->

<svg
   xmlns:dc="http://purl.org/dc/elements/1.1/"
   xmlns:cc="http://creativecommons.org/ns#"
   xmlns:rdf="http://www.w3.org/1999/02/22-rdf-syntax-ns#"
   xmlns:svg="http://www.w3.org/2000/svg"
   xmlns="http://www.w3.org/2000/svg"
   xmlns:sodipodi="http://sodipodi.sourceforge.net/DTD/sodipodi-0.dtd"
   xmlns:inkscape="http://www.inkscape.org/namespaces/inkscape"
   version="1.1"
   id="Layer_1"
   x="0px"
   y="0px"
   viewBox="0 0 49.100853 61.200001"
   xml:space="preserve"
   inkscape:version="0.91 r13725"
   sodipodi:docname="logo.svg"
   width="49.100853"
   height="61.200001"><metadata
     id="metadata161"><rdf:RDF><cc:Work
         rdf:about=""><dc:format>image/svg+xml</dc:format><dc:type
           rdf:resource="http://purl.org/dc/dcmitype/StillImage" /><dc:title /></cc:Work></rdf:RDF></metadata><defs
     id="defs159" /><sodipodi:namedview
     pagecolor="#ffffff"
     bordercolor="#666666"
     borderopacity="1"
     objecttolerance="10"
     gridtolerance="10"
     guidetolerance="10"
     inkscape:pageopacity="0"
     inkscape:pageshadow="2"
     inkscape:window-width="1266"
     inkscape:window-height="829"
     id="namedview157"
     showgrid="false"
     inkscape:snap-page="true"
     fit-margin-top="0"
     fit-margin-left="0"
     fit-margin-right="0"
     fit-margin-bottom="0"
     inkscape:zoom="3.3712566"
     inkscape:cx="-15.463682"
     inkscape:cy="15.512197"
     inkscape:window-x="0"
     inkscape:window-y="26"
     inkscape:window-maximized="0"
     inkscape:current-layer="Layer_1" /><style
     type="text/css"
     id="style3">
	.st0{fill:#7DAED3;}
	.st1{fill:#FFFFFF;}
	.st2{fill:none;stroke:#FFFFFF;stroke-width:0.8;stroke-miterlimit:10;}
</style><g
     id="g5"
     style="fill:#ffffff;fill-opacity:1"
     transform="translate(-174.5,-366.5)"><path
       class="st0"
       d="m 208.7,383.7 0.1,0 c 0,0 0,0 -0.1,0 0.1,0 0,0 0,0 z"
       id="path7"
       style="fill:#ffffff;fill-opacity:1"
       inkscape:connector-curvature="0" /><path
       class="st0"
       d="m 208.5,384.3 c 0,0 0,0 0,0 l 0,-0.5 0,0 0,0 c 0,0 0,0 0,0 l 0,0.5 z"
       id="path9"
       style="fill:#ffffff;fill-opacity:1"
       inkscape:connector-curvature="0" /><rect
       x="208.5"
       y="383.79999"
       class="st0"
       width="0"
       height="0.5"
       id="rect11"
       style="fill:#ffffff;fill-opacity:1" /><path
       class="st0"
       d="m 204.2,383.5 c 0,0 0,0 0,0 l 0,0 c 0,0 0,0 0,0 z"
       id="path13"
       style="fill:#ffffff;fill-opacity:1"
       inkscape:connector-curvature="0" /><circle
       class="st0"
       cx="208.5"
       cy="384.29999"
       r="0"
       id="circle15"
       style="fill:#ffffff;fill-opacity:1" /></g><g
     id="g17"
     style="fill:#ffffff;fill-opacity:1"
     transform="translate(-174.5,-366.5)"><path
       class="st1"
       d="m 200,380.2 c 0.1,0.1 0.2,0.1 0.2,0.1 8.5,-0.3 13.3,2.9 13.7,4.2 l 3.4,-0.1 1.1,-2.3 c 0.1,-0.2 0,-0.5 0,-0.5 -1,-1.1 -9.5,-3.6 -19.8,-3.6 -11,0 -17.9,2.2 -19.4,3.2 0,0 -0.4,0.2 -0.4,0.5 0,0.1 0.2,0.6 0.2,0.6 l 0.3,0.6 c 0.1,0.2 0.2,0.2 0.4,0 0,0 0.2,-0.1 0.2,-0.2 0,-0.1 -0.1,-0.4 -0.1,-0.4 -0.2,-0.4 0.1,-0.5 0.1,-0.5 l 0.6,-0.3 c 0.3,-0.1 0.3,0.1 0.4,0.3 0,0 0.1,0.3 0.2,0.4 0.2,0.1 0.7,-0.2 2.1,-0.6 0.1,0 0.2,0 0.4,-0.1 0.1,-0.1 0,-0.6 0,-0.6 -0.1,-0.2 -0.2,-0.5 0.4,-0.6 l 0.9,-0.2 c 0.4,-0.1 0.5,0.1 0.5,0.4 0,0 0,0.4 0.1,0.5 0.1,0.2 0.3,-0.1 3.2,-0.4 0,0 0.4,0 0.5,-0.2 0.1,-0.2 0,-0.5 0,-0.5 0,-0.3 -0.2,-0.6 0.5,-0.6 l 1.2,-0.1 c 0.9,-0.2 0.8,0.2 0.8,0.5 0,0 0,0.4 0.1,0.4 0.1,0.1 0.4,0.1 0.4,0.1 1.6,-0.2 2.5,-0.2 4.2,-0.2 0,0 0.2,0 0.3,-0.1 0.1,-0.1 0.1,-0.2 0.1,-0.2 0,-0.2 0,-0.5 0.1,-0.6 0.1,-0.1 0.4,-0.1 0.6,-0.1 l 1.4,0 c 0.2,0 0.7,-0.1 0.8,0.1 0.1,0.1 0.1,0.7 0.1,0.7 0,0 0.2,0.3 0.2,0.4 z"
       id="path19"
       style="fill:#ffffff;fill-opacity:1"
       inkscape:connector-curvature="0" /><path
       class="st1"
       d="m 198.6,366.5 c -8.3,0 -13.3,2.7 -16.6,5.8 0,0 -0.1,0.1 -0.1,0.1 -0.1,0.2 -0.1,0.4 0.3,0.3 7.1,-3 14.8,-1.1 17.3,1.7 0.1,0.1 0,0.2 -0.1,0.2 -2.5,0 -4.6,-0.1 -9.2,0.5 -2.5,0.4 -4.7,0.7 -6.6,1.2 -3.1,0.8 -5.3,1.8 -6.5,2.6 -0.4,0.2 -0.5,0.4 -0.6,0.6 -0.1,0.4 -0.1,0.4 -0.2,0.7 -0.2,0.5 -0.2,0.8 -0.3,1 -0.1,0.3 0.3,0.2 0.5,0 0.4,-0.4 1.4,-1.3 2.9,-2 1.5,-0.7 4,-1.5 6.8,-2 3.6,-0.7 8.1,-1.1 12.1,-1.1 4.7,0 8.9,0.5 12.4,1.2 3.6,0.7 6.4,1.7 8.2,2.6 0.9,0.4 1.3,0.8 1.9,1.3 0.5,0.5 0.5,0.1 0.5,-0.1 0,0 -0.1,-0.6 -0.8,-2 -2.4,-4.3 -8.6,-12.6 -21.9,-12.6"
       id="path21"
       style="fill:#ffffff;fill-opacity:1"
       inkscape:connector-curvature="0" /><g
       id="g23"
       style="fill:#ffffff;fill-opacity:1"><path
         class="st1"
         d="m 199.1,427.7 c -16.4,0 -24.6,-3.8 -24.6,-6 l 0,0 0,-2.1 c 0,0 0,-0.1 0.1,-0.1 0,0 0.1,0 0.1,0 7.1,5.4 23.9,6.1 31.2,3.7 0.2,-0.1 0.3,-0.2 0.3,-0.2 0,0 -0.1,-0.1 -0.1,-0.1 -0.2,-0.1 -0.3,-0.1 -0.5,0 -0.1,0 -0.2,0 -0.3,0 -11.5,1.2 -23.6,-1.1 -27.7,-4 0,0 -0.1,-0.1 -0.1,-0.1 l 0,-2.5 c 0,-0.1 0,-0.1 0.1,-0.1 0.1,0 0.1,0 0.1,0 0.5,0.5 2.6,1.5 6.6,2.3 3,0.6 7.9,1.4 14.4,1.4 9.8,0 18,-1.8 20.2,-3 0.5,-0.3 0.8,-0.5 0.8,-0.6 0,-0.1 0.1,-0.1 0.1,-0.1 0.1,0 0.1,0.1 0.1,0.1 l 0.1,1.5 c 2.5,0 3.4,0.1 3.5,0.7 0,0 0,0.1 0,0.2 0,0 0,0 0,0 l 0.1,2.9 c 0.1,2.2 -8.6,6.1 -24.5,6.1 z"
         id="path25"
         style="fill:#ffffff;fill-opacity:1"
         inkscape:connector-curvature="0" /></g><path
       class="st1"
       d="m 208.8,382.5 -4.5,0 c -0.2,0 -0.3,0.1 -0.3,0.3 l 0,0.5 c 0,0.2 0.1,0.3 0.3,0.3 l 1.4,0 c 0.1,0 0.2,0.1 0.2,0.1 0.1,0.1 -0.2,0.3 -0.3,0.3 l -0.7,0.4 c -0.1,0.1 -0.2,0.2 -0.2,0.4 l 0,32.3 c 0.1,0.6 1,0.6 2,0.6 0.8,0 1.8,0 1.9,-0.6 0,0 0,-30.8 0,-33.4 0,-0.1 0.1,-0.2 0.1,-0.2 0,0 0.2,0 0.2,0 0.2,0 0.3,-0.1 0.3,-0.3 l 0,-0.5 c -0.1,-0.1 -0.2,-0.2 -0.4,-0.2 z"
       id="path27"
       style="fill:#ffffff;fill-opacity:1"
       inkscape:connector-curvature="0" /><g
       id="g29"
       style="fill:#ffffff;fill-opacity:1"><path
         class="st1"
         d="m 198.8,416 c -1.4,0 -2.8,0 -2.9,-0.1 -0.2,-0.1 -0.2,-0.9 -0.1,-1.5 0,0 0,-0.1 0.1,-0.1 l 0.5,-0.2 0,-6 c 0,0 0,-0.1 0,-0.3 0.1,-0.2 0.2,-0.3 0.3,-0.3 0.4,-0.3 1.3,-0.9 1.8,-1.2 0.1,0 0.1,-0.1 0.1,-0.1 0,0 0,-0.1 0,-0.1 0,-0.1 -0.2,-0.1 -0.3,-0.1 -0.1,0 -0.1,0 -0.1,0 -0.1,0 -0.2,0 -1.4,0 0,0 -0.2,0 -0.4,-0.1 -0.1,0 -0.2,-0.1 -0.2,-0.1 0,0 0,0 0,0 l -0.4,-0.9 -0.3,0 c 0,0 -0.1,0 -0.1,0 0,0 0,-0.1 0,-0.1 l 0,-0.2 c 0,-0.1 0.1,-0.1 0.1,-0.1 l 6.3,0 c 0.1,0 0.1,0.1 0.1,0.1 l 0,0.2 c 0,0 0,0.1 0,0.1 0,0 -0.1,0 -0.1,0 l -0.2,0 -0.6,1.2 0,8 0.5,0.2 c 0,0 0.1,0.1 0.1,0.1 0.1,0.9 0.1,1.4 -0.1,1.5 -0.1,0 -1.4,0.1 -2.7,0.1 z"
         id="path31"
         style="fill:#ffffff;fill-opacity:1"
         inkscape:connector-curvature="0" /></g><path
       class="st1"
       d="m 217.6,384.3 -4.5,0 c -0.2,0 -0.3,0.1 -0.3,0.3 l 0,0.5 c 0,0.2 0.1,0.3 0.3,0.3 l 1.4,0 c 0.1,0 0.2,0.1 0.2,0.1 0.1,0.1 -0.2,0.3 -0.3,0.3 l -0.7,0.4 c -0.1,0.1 -0.2,0.2 -0.2,0.4 l 0,29.2 c 0.1,0.6 1,0.6 2,0.6 0.8,0 1.8,0 1.9,-0.6 0,0 0,-27.6 0,-30.3 0,-0.1 0.1,-0.2 0.1,-0.2 0,0 0.2,0 0.2,0 0.2,0 0.3,-0.1 0.3,-0.3 l 0,-0.5 c -0.1,-0.1 -0.2,-0.2 -0.4,-0.2 z"
       id="path33"
       style="fill:#ffffff;fill-opacity:1"
       inkscape:connector-curvature="0" /><path
       class="st1"
       d="m 192.9,382.5 -4.5,0 c -0.2,0 -0.3,0.1 -0.3,0.3 l 0,0.5 c 0,0.2 0.1,0.3 0.3,0.3 l 1.4,0 c 0.1,0 0.2,0.1 0.2,0.1 0.1,0.1 -0.2,0.3 -0.3,0.3 l -0.7,0.4 c -0.1,0.1 -0.2,0.2 -0.2,0.4 l 0,32.3 c 0.1,0.6 1,0.6 2,0.6 0.8,0 1.8,0 1.9,-0.6 0,0 0,-30.8 0,-33.4 0,-0.1 0.1,-0.2 0.1,-0.2 0,0 0.2,0 0.2,0 0.2,0 0.3,-0.1 0.3,-0.3 l 0,-0.5 c -0.1,-0.1 -0.2,-0.2 -0.4,-0.2 z"
       id="path35"
       style="fill:#ffffff;fill-opacity:1"
       inkscape:connector-curvature="0" /><path
       class="st1"
       d="m 184.1,384.4 -4.5,0 c -0.2,0 -0.3,0.1 -0.3,0.3 l 0,0.5 c 0,0.2 0.1,0.3 0.3,0.3 l 1.4,0 c 0.1,0 0.2,0.1 0.2,0.1 0.1,0.1 -0.2,0.3 -0.3,0.3 l -0.7,0.4 c -0.1,0.1 -0.2,0.2 -0.2,0.4 l 0,29.2 c 0.1,0.6 1,0.6 2,0.6 0.8,0 1.8,-0.1 1.9,-0.6 0,0 0,-27.6 0,-30.3 0,-0.1 0.1,-0.2 0.1,-0.2 0,0 0.2,0 0.2,0 0.2,0 0.3,-0.1 0.3,-0.3 l 0,-0.5 c -0.1,-0.1 -0.2,-0.2 -0.4,-0.2 z"
       id="path37"
       style="fill:#ffffff;fill-opacity:1"
       inkscape:connector-curvature="0" /></g></svg>